<?xml version="1.0" encoding="UTF-8"?>
<svg id="Layer_2" data-name="Layer 2" xmlns="http://www.w3.org/2000/svg" viewBox="0 0 695.49 375.9">
  <path d="M557.73,158.76c0-86.3-66.53-156.26-148.6-156.26s-148.6,69.96-148.6,156.26,66.53,156.26,148.6,156.26,141.78-63.02,148.09-143.21c.34-4.3.51-8.65.51-13.05Z" style="fill: none; stroke: #22b573; stroke-miterlimit: 10; stroke-width: 5px;"/>
  <path d="M554.12,167.71c4.16-1.72-.89-10.92-10.57-29.55-19.63-37.78-66.64-102.33-96.7-100.75-19.39,1.03,23.69,52.05,0,37.79-3.61-2.17-77.62,41.87-69.45,65.36,8.17,23.49,29.62,37.79,29.62,37.79,0,0,45.96-6.13,48,5.11,2.04,11.23,20.43,26.55,4.08,35.74-16.34,9.19-97.02-37.79-103.14-26.55-6.13,11.23,0,24.51,0,24.51l40.19,23.85s-54.49-6.49-72.87-31c-18.39-24.51,23.48-65.36,23.48-65.36,0,0-14.29-29.62-33.7-22.47-19.4,7.15-45.52,102.51-12.25,137.87,2.25,2.39,3.42,9.03,7.18,11.09" style="fill: none; stroke: #22b573; stroke-miterlimit: 10; stroke-width: 5px;"/>
</svg>