<?xml version="1.0" encoding="UTF-8"?>
<svg id="Layer_1" data-name="Layer 1" xmlns="http://www.w3.org/2000/svg" viewBox="0 0 208.59 24.34">
  <path d="M15.33,21.3l4.35-.6s-2.76,3.03-8.49,3.36c-7.08.39-11.19-3.9-11.19-6.3,0-1.89,1.38-3.24,3.09-4.2C1.47,12.3.18,10.56.3,8.7c.12-1.83,1.44-5.04,8.04-5.19,6.63-.12,10.89,2.52,10.89,2.52l-4.89.15,2.19,3.21s-4.83-2.04-7.41-2.1c-2.28-.06-5.43.21-5.58,1.53s.63,2.7,1.68,3.81c1.35-.48,2.58-.72,3.24-.75,1.86-.15,4.35.03,4.41,1.77.09,1.74-2.88,2.4-5.16,2.16-.72-.06-1.74-.45-2.82-1.02-.39.54-.6,1.2-.45,2.07.27,1.62,2.76,2.7,6.12,2.85,3.54.18,7.41-1.23,7.41-1.23l-2.64,2.82ZM6.42,13.62c.69.48,1.44.81,2.13.9,1.29.18,2.7-.39,2.7-.81,0-.39-1.65-.75-2.76-.66-.51.06-1.32.21-2.07.57Z"/>
  <path d="M42.81,18.15c.21,3.24,0,5.76,0,5.76l-2.4-3.63-2.73,3.69s.99-10.8-3.3-10.8c-2.22,0-4.65,1.5-5.82,2.34l-.39,8.31-2.34-3.09-2.64,2.94.27-16.02,2.64,3.72,2.79-3.39-.12,2.79c1.23-.78,4.02-2.34,6.42-2.34,6.15,0,7.41,6.03,7.62,9.72Z"/>
  <path d="M79.98,10.77c-.12,3.09-4.05,6.6-8.46,6.6-2.67,0-4.95-1.08-6.3-1.86l-.21,8.25-2.25-3.3-2.43,3.39V3.48l2.73,2.76,2.46-2.97-.09,2.91c1.05-1.26,2.94-2.7,6.18-2.7,5.82,0,8.46,4.2,8.37,7.29ZM75.42,10.2c-.03-1.65-2.25-2.88-3.9-2.82-3.39.15-5.28,1.29-6.15,2.04l-.09,3.54c1.05.3,3.03.66,6.15.6,3.03-.06,4.05-1.71,3.99-3.36Z"/>
  <path d="M100.35,17.13l-13.38-.06c0,2.43,3.3,3.57,6.15,3.57,2.07,0,4.59-2.07,4.59-2.07l-.78,2.94,3.09-.18s-2.1,2.85-7.23,2.85c-7.5,0-10.38-2.64-10.38-8.01,0-4.2,4.02-8.07,10.08-8.07,4.95,0,7.86,3.96,7.86,9.03ZM95.07,14.43s-.27-2.64-3.27-2.64-3.57,2.46-3.57,2.46l6.84.18Z"/>
  <path d="M109.95,21.81l2.49,2.16s-6.75.93-7.77-.15.3-23.82.3-23.82l2.19,2.76,2.94-2.46-1.02,19.5h3.21l-2.34,2.01Z"/>
  <path d="M128.28,19.38c0,3.39-3.51,4.59-7.32,4.59s-6.27-2.43-6.27-2.43l2.49-.18-.78-2.85s2.49,2.07,4.29,2.07,3.33.18,3.33-1.38c0-2.34-8.94-.48-8.88-6.48.03-2.28,2.73-4.71,6.45-4.71s5.58,1.77,6.6,2.94l-2.4-.15-.06,2.34c-1.17-1.35-3.06-1.68-3.87-1.68-1.26,0-2.55,0-2.43.93.33,2.64,8.85,1.59,8.85,6.99Z"/>
  <path d="M163.32,6.36l4.74-3.51s-9.27,21-12.63,21-11.49-20.79-11.49-20.79l3.96,3.81.39-3.72,7.26,14.31,6.81-14.19.96,3.09Z"/>
  <path d="M184.8,17.13l-13.38-.06c0,2.43,3.3,3.57,6.15,3.57,2.07,0,4.59-2.07,4.59-2.07l-.78,2.94,3.09-.18s-2.1,2.85-7.23,2.85c-7.5,0-10.38-2.64-10.38-8.01,0-4.2,4.02-8.07,10.08-8.07,4.95,0,7.86,3.96,7.86,9.03ZM179.52,14.43s-.27-2.64-3.27-2.64-3.57,2.46-3.57,2.46l6.84.18Z"/>
  <path d="M208.5,18.15c.21,3.24,0,5.76,0,5.76l-2.4-3.63-2.73,3.69s.99-10.8-3.3-10.8c-2.22,0-4.65,1.5-5.82,2.34l-.39,8.31-2.34-3.09-2.64,2.94.27-16.02,2.64,3.72,2.79-3.39-.12,2.79c1.23-.78,4.02-2.34,6.42-2.34,6.15,0,7.41,6.03,7.62,9.72Z"/>
</svg>